<?xml version="1.0" standalone="no"?>
<!DOCTYPE svg PUBLIC "-//W3C//DTD SVG 20010904//EN"
 "http://www.w3.org/TR/2001/REC-SVG-20010904/DTD/svg10.dtd">
<svg version="1.0" xmlns="http://www.w3.org/2000/svg"
 width="997.000000pt" height="1280.000000pt" viewBox="0 0 997.000000 1280.000000"
 preserveAspectRatio="xMidYMid meet">
<metadata>
Created by potrace 1.15, written by Peter Selinger 2001-2017
</metadata>
<g transform="translate(0.000000,1280.000000) scale(0.100000,-0.100000)"
fill="#000000" stroke="none">
<path d="M6680 12775 c-107 -13 -263 -35 -346 -49 -84 -14 -154 -26 -157 -26
-3 0 -20 -20 -37 -44 -28 -41 -33 -44 -58 -36 -108 34 -367 86 -527 105 -168
20 -212 22 -382 14 -166 -7 -215 -13 -375 -47 -151 -33 -532 -143 -547 -158
-2 -2 961 -4 2140 -3 l2144 0 -45 20 c-101 45 -433 149 -550 173 -393 78 -869
97 -1260 51z"/>
<path d="M3165 12629 c-65 -7 -438 -75 -460 -83 -5 -3 269 -5 609 -5 341 -1
617 1 614 4 -15 15 -145 59 -227 76 -75 15 -130 19 -280 18 -102 -1 -217 -5
-256 -10z"/>
<path d="M2165 12403 c-93 -30 -240 -79 -325 -108 l-155 -54 1039 0 1040 -1
70 54 c39 29 106 76 149 105 42 28 77 54 77 56 0 3 -388 5 -862 4 l-863 -1
-170 -55z"/>
<path d="M4099 12424 c-18 -20 -70 -61 -114 -90 -89 -60 -115 -79 -115 -85 0
-2 847 -1 1882 3 1036 5 1957 8 2048 8 91 0 398 -3 683 -7 284 -5 517 -7 517
-6 0 7 -153 110 -232 156 l-96 57 -2269 0 -2269 0 -35 -36z"/>
<path d="M2520 12130 l-1125 -5 -95 -46 c-52 -25 -131 -71 -174 -102 l-79 -57
1219 0 1219 1 32 47 c18 26 55 73 84 105 28 32 50 59 48 60 -2 1 -510 0 -1129
-3z"/>
<path d="M3673 12063 c-33 -38 -72 -85 -87 -105 l-28 -38 1786 0 c1045 0 1786
4 1786 9 0 5 42 52 94 105 l93 96 -1792 0 -1793 0 -59 -67z"/>
<path d="M7347 12060 c-31 -46 -64 -81 -99 -105 l-53 -35 603 0 603 0 46 31
c31 22 74 38 132 51 47 10 93 21 101 24 9 3 -36 26 -105 54 l-120 49 -531 1
-531 0 -46 -70z"/>
<path d="M8610 12126 c0 -2 33 -15 73 -29 39 -14 90 -33 111 -42 l39 -17 -44
-26 c-24 -14 -93 -40 -154 -58 l-110 -33 405 0 405 -1 -105 105 -105 105 -257
0 c-142 0 -258 -2 -258 -4z"/>
<path d="M808 11703 c-60 -58 -108 -108 -108 -110 0 -1 111 -3 246 -3 192 0
248 3 259 13 19 19 274 103 381 126 101 21 315 57 419 70 46 5 -132 9 -510 10
l-580 1 -107 -107z"/>
<path d="M3200 11794 c0 -13 -11 -14 -82 -7 -129 12 -758 8 -893 -6 -275 -28
-369 -45 -635 -112 -151 -39 -276 -72 -279 -74 -2 -3 469 -5 1046 -5 l1050 0
6 77 c4 43 9 93 13 111 l6 32 -116 0 c-99 0 -116 -2 -116 -16z"/>
<path d="M3493 11773 c-9 -21 -19 -68 -21 -105 l-4 -68 1436 0 1436 0 141 30
c191 40 248 59 375 124 l109 55 -1728 0 -1728 1 -16 -37z"/>
<path d="M7019 11774 c-51 -55 -182 -112 -329 -145 l-125 -27 1045 -1 1046 -1
37 50 c20 27 54 58 75 69 20 10 64 35 96 55 l60 36 -247 0 c-245 0 -248 0
-237 -20 10 -18 8 -20 -20 -20 -19 0 -34 7 -42 20 -13 20 -24 20 -668 20
l-656 0 -35 -36z"/>
<path d="M9007 11769 c-102 -45 -180 -94 -221 -138 l-30 -31 401 0 401 0 -65
105 -66 105 -166 -1 -166 -1 -88 -39z"/>
<path d="M565 11447 c-49 -63 -115 -156 -115 -162 0 -3 110 -5 246 -5 l245 0
62 42 c64 43 187 155 187 170 0 4 -132 8 -292 8 l-293 -1 -40 -52z"/>
<path d="M1249 11436 c-30 -47 -58 -77 -107 -110 l-66 -46 1212 0 1212 0 -29
58 c-16 31 -32 81 -36 110 l-7 52 -1069 0 -1070 0 -40 -64z"/>
<path d="M3497 11443 c8 -32 28 -82 46 -110 l31 -53 1474 0 1473 0 -28 37
c-15 20 -55 54 -87 75 l-59 38 61 0 c55 0 65 -3 109 -38 26 -21 59 -55 73 -75
l25 -37 1380 0 1379 0 -39 40 c-24 24 -83 63 -145 94 -87 45 -120 56 -194 66
-84 12 -208 9 -308 -7 -31 -4 -38 -2 -38 11 0 15 -204 16 -2584 16 l-2584 0
15 -57z"/>
<path d="M9237 11451 c107 -46 175 -93 197 -138 l16 -33 161 0 161 0 -20 33
c-11 17 -38 65 -62 105 l-42 72 -252 0 -251 -1 92 -38z"/>
<path d="M377 11167 c-12 -18 -82 -150 -95 -179 -2 -5 705 -8 1572 -8 l1576 0
6 28 c15 70 46 111 124 164 24 16 -52 17 -1325 17 l-1350 1 -94 -25 c-57 -15
-121 -25 -160 -24 l-66 0 70 24 70 23 -156 1 c-152 1 -157 0 -172 -22z"/>
<path d="M3606 11163 c-8 -16 -34 -43 -58 -61 -30 -22 -49 -47 -60 -77 l-17
-45 334 0 335 0 -38 35 -37 34 46 1 c38 0 54 -6 90 -35 l44 -35 240 0 241 0
149 45 c452 136 794 130 1062 -20 39 -21 58 -25 132 -25 l87 0 46 53 c26 30
53 54 62 54 21 0 21 1 -14 -55 l-29 -47 50 -3 c28 -2 53 -1 56 2 3 3 8 26 11
51 4 41 11 52 66 100 l61 55 -1422 0 -1422 0 -15 -27z"/>
<path d="M6515 11173 c8 -18 54 -156 61 -180 3 -13 54 -19 54 -7 0 4 -12 51
-27 105 l-28 99 -33 0 c-29 0 -33 -3 -27 -17z"/>
<path d="M6650 11179 c0 -6 14 -53 32 -105 l32 -94 1377 0 1376 0 6 47 c4 39
0 58 -24 105 l-29 58 -1385 0 c-991 0 -1385 -3 -1385 -11z"/>
<path d="M9500 11185 c0 -3 12 -28 26 -56 25 -49 26 -67 8 -131 -5 -17 8 -18
169 -18 l175 0 -5 43 c-3 23 -14 70 -26 105 l-22 62 -162 0 c-90 0 -163 -2
-163 -5z"/>
<path d="M6453 11123 c-28 -6 -55 -48 -63 -100 l-7 -43 63 0 64 0 -5 28 c-2
15 -7 48 -10 75 -4 26 -9 46 -13 46 -4 -1 -17 -4 -29 -6z"/>
<path d="M5230 11075 c-80 -13 -201 -40 -270 -59 l-125 -35 525 0 525 0 -85
40 c-62 30 -115 46 -195 60 -138 24 -194 23 -375 -6z"/>
<path d="M232 10843 c-25 -59 -52 -160 -44 -167 3 -3 747 -6 1654 -6 1415 0
1648 2 1648 14 0 8 -8 34 -18 58 -11 24 -25 67 -31 96 l-13 52 -1588 0 -1588
0 -20 -47z"/>
<path d="M3470 10876 c0 -24 21 -80 53 -143 l32 -63 123 0 c67 0 122 2 122 5
0 3 -11 18 -25 33 -28 31 -31 49 -11 95 11 28 22 35 70 49 51 14 63 14 119 0
52 -12 71 -23 120 -70 42 -42 57 -63 57 -84 0 -28 0 -28 70 -28 l70 0 -26 53
c-14 28 -51 78 -82 110 l-56 57 -318 0 c-260 0 -318 -2 -318 -14z"/>
<path d="M4217 10832 c37 -34 72 -78 88 -109 25 -52 26 -53 70 -53 l45 0 -24
48 c-14 27 -48 76 -76 110 l-52 62 -56 0 -57 0 62 -58z"/>
<path d="M4374 10843 c20 -27 53 -76 73 -110 l37 -63 803 0 803 0 0 43 c1 23
7 69 15 102 8 33 15 63 15 68 0 4 -401 7 -891 7 l-891 0 36 -47z"/>
<path d="M6175 10813 c-9 -43 -20 -90 -25 -105 -11 -33 -6 -38 41 -38 l38 0
11 58 c6 31 18 77 26 101 8 25 14 48 14 53 0 4 -20 8 -44 8 l-44 0 -17 -77z"/>
<path d="M6320 10828 c-36 -78 -50 -158 -27 -158 10 0 19 18 27 53 10 44 21
60 73 109 l62 57 -53 1 -53 0 -29 -62z"/>
<path d="M6584 10853 c3 -15 9 -65 13 -110 6 -82 6 -83 33 -83 26 0 28 3 34
53 3 28 2 77 -2 107 l-7 55 -39 3 c-38 3 -38 3 -32 -25z"/>
<path d="M6725 10838 c9 -52 11 -103 5 -143 l-5 -30 1355 0 1355 0 11 100 c6
55 9 103 7 108 -2 4 -619 7 -1370 7 l-1366 0 8 -42z"/>
<path d="M9507 10793 c-2 -49 -8 -98 -12 -111 l-7 -22 203 2 204 3 0 105 0
105 -191 3 -192 2 -5 -87z"/>
<path d="M6431 10814 c-51 -45 -91 -125 -91 -180 0 -49 8 -54 86 -54 60 0 107
19 124 49 5 11 10 56 10 100 0 68 -3 84 -20 101 -30 30 -65 25 -109 -16z"/>
<path d="M3840 10817 c-32 -16 -39 -77 -16 -122 39 -72 167 -117 240 -84 27
13 42 55 31 88 -11 35 -95 100 -148 116 -61 18 -75 18 -107 2z"/>
<path d="M155 10565 c-2 -5 -6 -54 -9 -107 l-5 -98 1841 0 1841 0 -43 48 c-24
26 -68 73 -97 105 l-55 57 -1735 3 c-1151 1 -1737 -1 -1738 -8z"/>
<path d="M3800 10460 l115 -110 207 0 206 0 15 50 c13 45 13 55 -3 108 l-18
57 -318 2 -319 2 115 -109z"/>
<path d="M4360 10565 c0 -3 13 -31 29 -63 l29 -57 -19 -35 c-27 -51 -24 -60
16 -60 25 0 54 12 93 37 31 21 120 70 197 110 l140 72 -242 1 c-134 0 -243 -2
-243 -5z"/>
<path d="M5350 10560 l-365 -5 -135 -57 c-74 -31 -171 -76 -215 -100 l-80 -43
719 -3 c396 -1 721 0 724 3 3 2 -16 28 -41 57 -35 41 -68 65 -144 103 l-98 50
-365 -5z"/>
<path d="M5820 10566 c0 -2 38 -27 85 -56 61 -37 98 -68 127 -106 l40 -54 68
0 68 0 6 31 c3 17 6 67 6 110 l0 79 -200 0 c-110 0 -200 -2 -200 -4z"/>
<path d="M6505 10539 c-43 -26 -58 -29 -112 -26 -48 2 -68 8 -86 25 l-24 23
-6 -83 c-3 -46 -9 -93 -13 -105 l-6 -23 151 0 151 0 34 48 c28 38 66 133 66
165 0 4 -24 7 -52 6 -39 -1 -66 -9 -103 -30z"/>
<path d="M6722 10558 c-6 -7 -13 -31 -17 -53 -4 -22 -25 -63 -47 -92 l-39 -53
1600 0 1599 0 17 43 c10 23 26 70 35 105 l19 62 -1578 0 c-1251 0 -1581 -3
-1589 -12z"/>
<path d="M6251 10193 c-11 -54 -10 -59 18 -107 l28 -51 63 0 63 0 38 99 c22
55 39 104 39 108 0 4 -53 8 -119 8 l-118 0 -12 -57z"/>
<path d="M146 10213 c4 -16 17 -63 28 -106 l21 -77 1908 -3 c1049 -1 1907 0
1907 3 0 3 -24 51 -52 107 l-53 103 -1883 0 -1882 0 6 -27z"/>
<path d="M4016 10218 c3 -13 26 -61 49 -108 l43 -85 63 1 64 2 9 38 c5 22 16
69 26 107 l17 67 -139 0 -139 0 7 -22z"/>
<path d="M4363 10223 c-3 -10 -14 -38 -23 -63 -10 -25 -21 -65 -25 -89 l-7
-43 438 7 c547 8 493 8 1023 0 401 -7 444 -6 438 8 -24 63 -27 99 -13 147 l15
50 -920 0 c-867 0 -920 -1 -926 -17z"/>
<path d="M6540 10193 c-26 -43 -58 -139 -49 -147 2 -2 700 -7 1551 -11 l1546
-8 57 49 c38 33 64 67 81 103 13 29 24 55 24 57 0 2 -715 4 -1590 4 l-1590 0
-30 -47z"/>
<path d="M224 9893 c3 -10 21 -58 39 -108 l34 -90 1893 -3 1893 -2 -7 62 c-4
35 -9 84 -13 111 l-6 47 -1919 0 c-1823 0 -1919 -1 -1914 -17z"/>
<path d="M4124 9888 c3 -13 6 -58 6 -100 0 -45 4 -78 10 -78 6 0 10 4 10 10 0
5 17 50 39 100 l39 90 -55 0 c-52 0 -55 -1 -49 -22z"/>
<path d="M4276 9888 c-21 -32 -74 -149 -78 -171 -3 -17 7 -18 117 -19 l120 0
50 44 c28 25 82 69 120 98 39 30 74 57 80 62 5 4 -82 8 -193 8 -198 0 -202 0
-216 -22z"/>
<path d="M4744 9867 c-70 -41 -202 -145 -203 -159 -1 -5 364 -8 810 -8 l810 0
-20 26 c-49 63 -93 105 -150 143 l-60 41 -558 -1 -558 -1 -71 -41z"/>
<path d="M6020 9906 c0 -2 36 -27 80 -56 49 -32 95 -73 121 -106 l41 -54 124
0 c68 0 124 3 124 8 -1 4 -21 22 -46 40 -25 19 -71 65 -102 103 l-56 69 -143
0 c-79 0 -143 -2 -143 -4z"/>
<path d="M6360 9905 c0 -7 74 -74 78 -70 2 2 0 19 -3 39 -7 33 -10 36 -41 36
-19 0 -34 -2 -34 -5z"/>
<path d="M7951 9902 l-1463 -2 7 -46 c4 -31 19 -62 47 -98 l41 -53 1284 -7
1284 -6 122 96 c67 52 128 99 137 104 8 5 13 10 10 12 -3 2 -664 2 -1469 0z"/>
<path d="M6319 9556 l20 -46 -44 0 c-42 0 -44 1 -51 35 l-6 35 -913 0 -913 0
-65 -102 -66 -103 615 -3 c338 -1 890 -1 1228 0 l614 3 -70 105 c-39 58 -71
106 -72 106 0 1 -67 5 -149 9 l-147 7 19 -46z"/>
<path d="M6660 9585 c0 -3 18 -25 40 -49 22 -24 51 -68 65 -99 l25 -57 986 0
987 0 119 96 c65 53 121 101 124 105 3 5 -513 9 -1170 9 -647 0 -1176 -2
-1176 -5z"/>
<path d="M355 9571 c3 -5 66 -53 141 -105 l135 -96 1684 0 1683 0 35 105 36
105 -1860 0 c-1139 0 -1858 -4 -1854 -9z"/>
<path d="M4113 9487 c-18 -45 -35 -90 -39 -100 -6 -16 0 -18 66 -15 l72 3 17
42 c9 23 32 59 52 80 72 77 74 73 -37 73 l-99 0 -32 -83z"/>
<path d="M9305 9507 c-84 -61 -453 -351 -540 -425 -55 -46 -172 -151 -260
-232 -88 -81 -223 -200 -300 -264 -197 -166 -369 -317 -389 -343 -16 -22 -15
-24 32 -85 56 -72 140 -210 184 -304 24 -52 29 -72 23 -101 -9 -52 -40 -107
-72 -133 -26 -21 -35 -22 -118 -16 -49 3 -119 13 -155 20 -36 8 -66 13 -68 11
-3 -2 1 -55 7 -117 6 -63 11 -145 11 -184 0 -112 -63 -460 -114 -630 -37 -124
-114 -429 -140 -559 -18 -87 -48 -353 -58 -517 -13 -206 -2 -549 27 -808 8
-74 22 -205 30 -290 9 -85 24 -225 35 -310 45 -354 52 -469 57 -932 l5 -456
124 79 c298 190 425 281 584 421 279 246 602 596 846 918 203 268 409 676 606
1200 170 453 186 517 260 1010 l43 285 -1 375 c-2 426 -14 612 -50 786 -45
223 -207 760 -328 1089 -14 39 -76 175 -138 302 l-113 232 -30 -22z"/>
<path d="M1001 9266 c2 -2 127 -49 278 -105 l275 -101 1198 0 c659 0 1198 3
1198 8 1 4 7 49 14 99 7 51 11 95 8 98 -3 3 -674 5 -1490 5 -817 0 -1483 -2
-1481 -4z"/>
<path d="M563 9226 l-92 -20 -55 -126 c-161 -370 -228 -586 -320 -1030 -111
-539 -121 -1099 -30 -1685 38 -247 60 -350 125 -575 99 -346 299 -850 431
-1085 219 -389 766 -1068 1059 -1315 226 -190 620 -466 837 -584 130 -72 386
-197 541 -265 89 -39 93 -40 87 -18 -18 70 -165 783 -208 1012 -69 369 -92
818 -57 1120 12 104 83 484 99 533 11 31 3 48 -150 350 -156 306 -207 425
-362 847 -129 353 -144 633 -67 1254 45 368 97 583 159 668 l30 41 -187 95
c-104 52 -260 126 -348 165 -586 257 -710 314 -875 400 -198 105 -433 214
-490 229 -26 7 -58 4 -127 -11z"/>
<path d="M4035 9228 c-20 -88 -25 -117 -25 -150 l0 -38 73 0 c39 0 95 6 122
13 43 12 55 12 85 -2 l35 -16 -91 -3 -92 -3 -46 -49 c-26 -28 -56 -50 -66 -50
-24 0 -26 -19 -6 -46 14 -18 15 -18 26 14 l12 32 213 0 213 0 22 -37 c22 -37
50 -122 50 -153 0 -13 -38 -15 -285 -15 -157 0 -285 2 -285 5 0 3 7 28 16 55
14 48 14 52 -7 98 l-22 47 -1101 0 -1101 0 50 -24 c28 -12 127 -60 222 -104
l172 -82 876 0 877 0 -7 -50 -7 -50 306 0 306 0 0 50 0 50 961 0 961 0 -20
-34 -20 -34 21 -21 c18 -18 19 -21 5 -21 -19 0 -82 -99 -92 -145 -4 -16 -9
-38 -12 -47 -5 -17 7 -18 156 -18 l162 0 -96 103 -96 102 398 3 397 3 96 -103
97 -103 -396 -5 -395 -5 47 -43 c25 -23 46 -43 46 -45 0 -1 -96 -2 -212 -2
l-213 0 -3 -85 c-2 -47 0 -95 3 -107 l5 -23 338 0 338 0 69 -50 69 -50 -413 0
-414 0 6 -82 c4 -46 9 -93 13 -105 l6 -23 569 0 c313 0 569 4 569 8 0 5 -16
13 -35 19 -38 12 -223 120 -270 159 l-30 24 283 0 c155 0 282 2 282 4 0 2 -9
24 -20 50 l-21 46 -327 0 -327 0 -41 28 c-43 28 -194 166 -194 176 0 3 169 6
376 6 l375 0 -35 44 c-20 23 -36 46 -36 50 0 3 39 6 87 6 l88 0 60 63 c33 35
82 82 109 105 l49 42 -289 0 -289 0 -52 51 c-29 28 -53 52 -53 55 0 2 176 4
391 4 l392 0 67 54 c36 30 91 77 121 105 l54 50 -640 0 -640 0 39 -32 c22 -18
74 -65 115 -104 l76 -73 -344 0 -343 0 6 58 c4 31 11 78 17 104 l11 48 209 2
209 3 -56 45 -57 45 760 5 759 5 85 76 c46 42 98 88 114 103 l30 25 -864 1
-863 0 6 -27 c3 -16 8 -38 12 -50 5 -20 -1 -24 -64 -43 l-70 -21 36 -34 37
-34 -117 -1 -117 0 -27 -50 -27 -50 -1008 0 -1009 0 -72 53 -72 52 100 5 c92
5 111 10 259 67 125 48 199 69 340 98 98 20 181 38 184 40 2 3 -269 5 -602 5
l-607 0 -5 -22z"/>
<path d="M5700 9243 c305 -52 446 -83 637 -138 123 -36 228 -65 234 -65 6 0
39 20 73 44 34 24 82 50 106 57 60 17 62 19 54 67 l-7 42 -561 -1 c-308 -1
-550 -4 -536 -6z"/>
<path d="M5430 9204 c-8 -2 -112 -17 -230 -33 -183 -25 -238 -37 -370 -80
l-155 -50 830 0 830 0 -135 40 c-199 59 -292 77 -530 104 -118 14 -217 24
-220 24 -3 -1 -12 -3 -20 -5z"/>
<path d="M2442 8605 c3 -3 70 -51 149 -105 l144 -100 597 0 596 0 6 28 c3 15
8 50 11 77 4 28 9 62 11 78 l6 27 -763 0 c-419 0 -760 -2 -757 -5z"/>
<path d="M4744 8564 c-4 -26 -16 -72 -28 -103 l-22 -56 -372 -3 -372 -2 0 -45
0 -45 -342 0 c-188 0 -339 -2 -336 -5 14 -14 415 -95 695 -140 l41 -6 -18 38
c-10 21 -21 53 -25 71 l-7 32 339 0 338 0 27 50 28 50 814 0 814 0 11 46 c7
26 25 73 42 105 l29 59 -824 0 -825 0 -7 -46z"/>
<path d="M2670 8213 c-12 -54 -23 -104 -25 -110 -4 -10 142 -13 707 -13 487 0
709 3 702 10 -6 6 -127 30 -270 55 -308 52 -363 63 -561 115 -151 40 -152 40
-341 40 l-190 0 -22 -97z"/>
<path d="M4643 8294 c-3 -8 3 -57 13 -107 l19 -92 730 -3 730 -2 46 25 c26 14
55 25 65 25 16 -1 15 -4 -9 -25 l-28 -25 45 0 46 0 0 110 0 110 -825 0 c-743
0 -826 -2 -832 -16z"/>
<path d="M4557 8195 c-70 -110 -62 -107 -286 -103 -105 2 -191 2 -191 1 0 -10
80 -53 140 -75 l75 -27 -842 0 c-793 -1 -842 -2 -847 -18 -6 -20 -29 -180 -27
-188 0 -3 480 -6 1066 -8 941 -2 1065 0 1065 13 0 8 -4 31 -9 50 -5 19 -15 61
-21 93 l-11 57 -182 1 c-130 1 -171 4 -144 10 50 12 87 32 116 63 22 24 31 26
103 26 l78 0 -7 43 c-3 23 -11 63 -17 90 l-11 47 -48 -75z"/>
<path d="M4818 7989 c8 -7 206 -69 312 -97 229 -61 475 -74 657 -34 144 32
342 108 343 132 0 9 -225 -6 -251 -18 -15 -6 -80 -20 -145 -32 -200 -37 -452
-27 -694 25 -82 18 -234 35 -222 24z"/>
<path d="M5093 7989 c27 -14 238 -31 385 -31 145 0 306 15 324 31 4 3 -157 6
-357 6 -200 0 -358 -3 -352 -6z"/>
<path d="M6190 7980 c-12 -23 -108 -78 -209 -119 -162 -67 -434 -90 -665 -55
-127 18 -410 99 -525 148 -68 29 -82 33 -76 19 4 -10 20 -55 37 -100 16 -46
34 -85 39 -89 9 -5 1529 -8 1534 -2 2 3 -10 106 -21 186 -5 31 -6 32 -54 32
-39 0 -52 -4 -60 -20z"/>
<path d="M2567 7633 c-4 -27 -9 -76 -13 -110 l-7 -63 1152 0 c633 0 1151 2
1151 5 0 10 -74 191 -83 203 -7 9 -240 12 -1102 12 l-1092 0 -6 -47z"/>
<path d="M4812 7673 c2 -5 27 -54 56 -110 l52 -103 721 0 721 0 -7 48 c-4 26
-11 74 -14 107 l-6 60 -763 3 c-420 1 -762 -1 -760 -5z"/>
<path d="M6400 7659 c0 -12 5 -62 12 -110 l12 -89 548 0 548 0 0 110 0 110
-560 0 -560 0 0 -21z"/>
<path d="M2544 7258 c4 -57 8 -104 10 -105 2 -2 561 -2 1244 -1 l1241 3 -60
103 -60 102 -1191 0 -1191 0 7 -102z"/>
<path d="M4986 7348 c42 -69 69 -106 108 -148 l47 -50 635 0 636 0 -6 28 c-3
15 -10 62 -17 105 l-12 77 -699 0 c-557 0 -698 -3 -692 -12z"/>
<path d="M6443 7338 c3 -13 8 -45 12 -73 3 -27 8 -65 11 -82 l5 -33 513 0 514
0 5 28 c3 16 9 63 13 105 l7 77 -543 0 -542 0 5 -22z"/>
<path d="M2556 6973 c3 -43 7 -93 10 -110 l5 -33 1365 0 c794 0 1364 4 1362 9
-1 5 -47 54 -100 110 l-98 101 -1274 0 -1274 0 4 -77z"/>
<path d="M5210 7041 c0 -19 89 -128 138 -168 l51 -43 540 0 c426 0 541 3 541
13 -1 6 -11 55 -23 107 l-23 95 -612 3 c-357 1 -612 -2 -612 -7z"/>
<path d="M6480 7048 c0 -2 15 -50 33 -108 l33 -105 452 -3 452 -2 5 22 c5 27
35 188 35 194 0 2 -227 4 -505 4 -278 0 -505 -1 -505 -2z"/>
<path d="M2583 6703 c3 -16 11 -63 18 -105 l13 -78 1418 0 1418 0 -19 48 c-10
26 -27 67 -37 92 -9 25 -21 50 -26 57 -8 9 -330 12 -1400 13 l-1391 0 6 -27z"/>
<path d="M5420 6725 c0 -3 12 -29 26 -58 15 -29 35 -74 44 -102 l17 -50 521
-3 c287 -1 522 -1 522 0 0 2 -9 50 -20 108 -11 58 -20 106 -20 107 0 2 -245 3
-545 3 -300 0 -545 -2 -545 -5z"/>
<path d="M6573 6718 c2 -7 13 -55 23 -105 l18 -93 381 0 380 0 23 98 c12 53
22 100 22 105 0 4 -192 7 -426 7 -337 0 -425 -3 -421 -12z"/>
<path d="M2641 6403 c0 -10 15 -58 33 -108 l33 -90 1422 -3 c781 -1 1421 1
1421 6 0 4 -15 53 -33 107 l-34 100 -1421 3 c-1350 2 -1422 1 -1421 -15z"/>
<path d="M5550 6415 c0 -3 11 -27 24 -53 13 -26 29 -73 36 -104 l11 -58 485 0
c291 0 484 4 484 9 0 16 -20 164 -25 189 l-5 22 -505 0 c-278 0 -505 -2 -505
-5z"/>
<path d="M6630 6412 c0 -5 7 -31 15 -58 8 -27 15 -73 15 -101 l0 -53 313 0
312 0 23 88 c12 48 25 97 28 110 l6 22 -356 0 c-196 0 -356 -4 -356 -8z"/>
<path d="M2775 5993 l43 -108 1413 3 c777 1 1414 4 1415 5 2 2 -9 49 -24 105
l-27 102 -1431 0 -1431 0 42 -107z"/>
<path d="M5671 6048 c12 -29 29 -75 39 -103 l17 -50 448 -3 448 -2 -7 52 c-3
29 -6 77 -6 106 l0 52 -480 0 -480 0 21 -52z"/>
<path d="M6681 6053 c5 -21 9 -68 9 -105 l0 -68 280 0 279 0 5 33 c2 17 8 65
13 105 l9 72 -302 0 -302 0 9 -37z"/>
<path d="M2850 5786 c0 -2 22 -51 50 -110 l50 -106 942 0 943 1 42 60 42 61
10 -39 c11 -38 56 -90 98 -112 12 -6 49 -14 83 -18 60 -6 60 -6 60 21 l0 26
271 0 271 0 -6 28 c-3 15 -10 56 -16 92 -6 36 -13 73 -16 83 -5 16 -81 17
-1415 17 -775 0 -1409 -2 -1409 -4z"/>
<path d="M5740 5778 c1 -7 7 -40 15 -73 8 -33 15 -77 15 -97 l0 -38 420 0 419
0 5 33 c7 42 9 82 8 140 l-2 47 -440 0 c-346 0 -440 -3 -440 -12z"/>
<path d="M6694 5753 c3 -21 6 -71 6 -110 l0 -73 264 0 263 0 7 46 c3 26 6 75
6 110 l0 64 -276 0 -277 0 7 -37z"/>
<path d="M4801 5423 c-13 -32 -25 -82 -28 -110 l-6 -53 154 0 154 0 23 88 c12
48 25 97 28 110 l6 22 -154 0 -155 0 -22 -57z"/>
<path d="M3045 5365 l50 -105 812 0 813 0 4 23 c3 12 9 42 14 67 5 25 17 62
26 83 l16 37 -892 0 -893 0 50 -105z"/>
<path d="M5162 5423 c-20 -44 -41 -120 -42 -150 0 -10 64 -13 289 -13 266 0
289 1 296 18 5 9 9 56 10 105 l2 87 -267 0 -267 0 -21 -47z"/>
<path d="M5764 5365 l-9 -105 412 0 411 0 6 28 c3 15 8 50 11 77 4 28 9 62 11
78 l6 27 -419 0 -419 0 -10 -105z"/>
<path d="M6680 5433 c0 -21 -7 -65 -15 -98 -8 -33 -14 -63 -15 -67 0 -5 128
-8 285 -8 l285 0 5 23 c2 12 6 59 7 105 l3 82 -277 0 -278 0 0 -37z"/>
<path d="M4755 5118 c4 -24 21 -73 37 -110 l31 -68 256 0 256 1 -65 31 c-68
33 -150 109 -170 159 l-12 29 -170 0 -170 0 7 -42z"/>
<path d="M5161 5143 c95 -126 165 -177 255 -189 40 -5 59 -2 90 14 67 34 131
98 147 147 l16 45 -261 0 c-246 0 -260 -1 -247 -17z"/>
<path d="M5695 5108 c-35 -78 -58 -107 -104 -135 -23 -13 -41 -26 -41 -29 0
-2 204 -4 453 -4 l454 0 27 50 c22 40 66 152 66 167 0 1 -187 3 -416 3 l-415
0 -24 -52z"/>
<path d="M6578 5067 c-20 -50 -40 -100 -44 -109 -6 -17 15 -18 346 -18 l353 0
-7 53 c-3 28 -6 78 -6 110 l0 57 -302 0 -303 0 -37 -93z"/>
<path d="M3196 5100 l36 -50 -70 0 -69 0 -7 -37 c-3 -21 -6 -46 -6 -55 0 -17
47 -18 840 -18 462 0 840 4 840 8 0 5 -6 31 -14 58 -8 27 -17 70 -21 97 l-6
47 -780 0 -779 0 36 -50z"/>
<path d="M3365 4790 l25 -50 -169 0 -169 0 -4 -55 -3 -55 964 0 964 0 -46 49
c-25 26 -60 74 -77 105 l-32 56 -739 0 -739 0 25 -50z"/>
<path d="M4870 4836 c0 -12 103 -131 143 -166 l45 -40 544 0 543 0 61 38 c34
20 89 67 124 105 l62 67 -761 0 c-418 0 -761 -2 -761 -4z"/>
<path d="M6416 4774 c-34 -41 -79 -81 -118 -105 l-63 -39 503 0 502 0 0 105 0
105 -385 0 -385 0 -54 -66z"/>
<path d="M3470 4526 c0 -2 7 -23 15 -46 8 -23 15 -46 15 -51 0 -5 -103 -9
-230 -9 l-230 0 0 -55 0 -55 868 0 868 0 18 55 c9 30 30 80 46 110 l29 55
-700 0 c-384 0 -699 -2 -699 -4z"/>
<path d="M6140 4526 c0 -2 7 -23 15 -46 8 -23 15 -46 15 -51 0 -5 -289 -9
-659 -9 l-658 0 -21 -47 c-11 -26 -20 -48 -19 -49 1 -1 552 -5 1225 -9 l1222
-7 0 43 c0 24 -3 74 -7 112 l-6 67 -553 0 c-305 0 -554 -2 -554 -4z"/>
<path d="M4815 4153 c-9 -43 -20 -91 -25 -108 -21 -70 -31 -282 -20 -446 13
-186 8 -259 -22 -309 -17 -28 -21 -50 -20 -114 1 -44 7 -107 13 -140 27 -150
55 -434 68 -699 5 -98 12 -181 16 -185 4 -4 115 -7 248 -6 244 1 415 15 474
39 33 14 137 87 147 104 3 5 -29 10 -75 13 -97 4 -106 13 -139 128 -11 41 -35
122 -53 180 -40 130 -42 238 -10 410 61 319 67 404 38 545 -56 269 -208 481
-450 628 -51 31 -70 37 -117 37 l-56 0 -17 -77z"/>
<path d="M3570 4201 c0 -5 7 -27 15 -50 l14 -41 -277 0 -277 0 3 -55 4 -55
837 0 837 0 15 105 14 105 -592 0 c-332 0 -593 -4 -593 -9z"/>
<path d="M6265 4169 c8 -23 15 -48 15 -55 0 -12 -90 -14 -527 -16 -514 -3
-527 -3 -495 -21 18 -10 44 -31 59 -47 l26 -30 969 0 968 0 0 105 0 105 -515
0 -514 0 14 -41z"/>
<path d="M3645 3875 c3 -14 7 -36 10 -50 l5 -25 -296 0 -297 0 7 -52 c4 -28 9
-55 12 -60 3 -4 367 -8 808 -8 l803 0 6 68 c4 37 7 86 7 110 l0 42 -535 0
-535 0 5 -25z"/>
<path d="M6333 3845 l6 -55 -450 0 -450 0 7 -22 c3 -13 12 -38 20 -55 l13 -33
914 0 c502 0 916 2 918 4 2 2 2 51 -1 108 l-5 103 -489 3 -489 2 6 -55z"/>
<path d="M3695 3548 c4 -18 9 -43 12 -55 l5 -23 -296 0 -297 0 3 -47 3 -48
783 -3 c622 -2 782 0 783 10 1 7 2 55 3 106 l2 92 -504 0 -504 0 7 -32z"/>
<path d="M6340 3530 l0 -50 -421 0 -421 0 6 -22 c3 -13 6 -38 6 -55 l0 -33
916 0 917 0 -6 88 c-3 48 -8 95 -12 105 -7 16 -40 17 -496 17 l-489 0 0 -50z"/>
<path d="M3742 3220 l3 -50 -287 0 -288 0 0 -22 c0 -13 3 -40 6 -60 l7 -38
742 0 742 0 -1 110 -1 110 -463 0 -464 0 4 -50z"/>
<path d="M6290 3245 c-5 -14 -13 -37 -16 -50 l-6 -25 -379 0 c-295 0 -381 -3
-384 -12 -2 -7 -6 -34 -10 -60 l-6 -48 924 0 924 0 7 53 c3 28 6 78 6 110 l0
57 -525 0 -525 0 -10 -25z"/>
<path d="M3765 2933 c2 -10 6 -35 9 -55 l5 -38 -273 0 -273 0 10 -50 10 -50
713 0 714 0 0 38 c0 20 -3 67 -7 105 l-6 67 -453 0 c-425 0 -452 -1 -449 -17z"/>
<path d="M6140 2900 l-23 -50 -324 0 -323 0 -10 -24 c-5 -13 -5 -37 -1 -53 l7
-28 931 -3 930 -2 7 31 c3 17 6 65 6 105 l0 74 -588 0 -589 0 -23 -50z"/>
<path d="M3792 2585 l5 -55 -247 0 -247 0 8 -42 c4 -24 8 -46 9 -50 0 -12
1390 -10 1390 1 0 19 -21 166 -26 184 -5 16 -35 17 -451 17 l-445 0 4 -55z"/>
<path d="M5991 2585 l-23 -55 -220 0 -219 0 7 -22 c3 -13 13 -35 21 -50 l14
-28 863 0 863 0 7 68 c3 37 9 84 12 105 l7 37 -654 0 -654 0 -24 -55z"/>
<path d="M4257 2322 l-457 -2 4 -23 c3 -12 7 -34 11 -49 l5 -28 -221 0 -221 0
6 -26 c4 -15 10 -39 13 -55 l6 -29 669 0 669 0 -7 78 c-3 42 -9 91 -13 107
l-6 30 -458 -3z"/>
<path d="M5882 2287 c-13 -31 -22 -39 -56 -47 -81 -21 -162 -54 -215 -89 l-54
-36 818 -3 c450 -1 820 0 822 2 8 8 63 179 63 195 0 14 -65 16 -682 16 l-682
0 -14 -38z"/>
<path d="M3813 1965 l7 -45 -158 0 -157 0 25 -20 c14 -11 64 -40 112 -65 l86
-45 526 0 c470 0 526 2 526 16 0 8 -5 58 -12 110 l-11 94 -475 0 -475 0 6 -45z"/>
<path d="M5490 1958 c1 -29 7 -78 14 -108 l13 -55 601 -3 602 -2 90 54 c92 55
140 76 218 96 23 6 57 24 75 40 l32 29 -822 1 -823 0 0 -52z"/>
<path d="M3843 1655 c3 -22 9 -70 13 -107 l7 -68 478 0 479 0 -1 23 c0 12 -6
59 -12 105 l-12 82 -479 3 -478 2 5 -40z"/>
<path d="M5550 1685 c0 -6 21 -53 48 -105 l47 -95 407 -3 408 -2 27 51 c16 29
47 76 71 105 23 30 42 55 42 56 0 2 -236 3 -525 3 -358 0 -525 -3 -525 -10z"/>
<path d="M3874 1363 c2 -10 7 -57 11 -105 l7 -88 485 -2 485 -3 -6 90 c-4 50
-9 98 -12 108 -5 16 -37 17 -490 17 -457 0 -485 -1 -480 -17z"/>
<path d="M5760 1345 c18 -19 72 -54 119 -77 84 -42 88 -43 202 -46 96 -3 129
0 190 18 41 12 82 23 91 26 13 4 38 75 38 109 0 3 -152 5 -337 5 l-337 0 34
-35z"/>
<path d="M3904 1024 c3 -26 6 -75 6 -110 l0 -64 506 0 c476 0 505 1 500 18 -2
9 -10 59 -17 110 l-12 92 -495 0 -495 0 7 -46z"/>
<path d="M3920 722 c0 -16 3 -63 6 -105 l7 -77 513 0 c418 0 514 2 514 13 0 7
-5 40 -10 73 -6 32 -13 74 -16 92 l-5 32 -504 0 -505 0 0 -28z"/>
<path d="M3917 368 c-4 -40 -10 -90 -13 -110 l-7 -38 512 0 512 0 40 38 39 37
-12 70 -13 70 -526 3 -526 2 -6 -72z"/>
<path d="M4042 80 c102 -45 224 -71 352 -73 107 -2 175 14 296 71 l85 40 -410
1 -410 1 87 -40z"/>
</g>
</svg>
